<svg xmlns="http://www.w3.org/2000/svg" viewBox="0 0 512 512" width="512" height="512">
  <rect width="512" height="512" fill="#3B82F6" rx="64"/>
  <path fill="white" d="M256 85c-23.5 0-42.7 19.2-42.7 42.7v42.6h85.4v-42.6c0-23.5-19.2-42.7-42.7-42.7zm-85.3 85.3v-42.6c0-47.1 38.2-85.3 85.3-85.3s85.3 38.2 85.3 85.3v42.6h42.7c23.5 0 42.7 19.2 42.7 42.7v213.3c0 23.5-19.2 42.7-42.7 42.7H128c-23.5 0-42.7-19.2-42.7-42.7V213.3c0-23.5 19.2-42.7 42.7-42.7h42.7zM128 213.3v213.4h256V213.3H128zm128 53.4c17.6 0 32 14.4 32 32s-14.4 32-32 32-32-14.4-32-32 14.4-32 32-32z"/>
</svg>
